<?xml version="1.0" encoding="UTF-8" standalone="no"?>
<!DOCTYPE svg PUBLIC "-//W3C//DTD SVG 1.0//EN" "http://www.w3.org/TR/2001/REC-SVG-20010904/DTD/svg10.dtd" >
<!--
Copyright (c) 2023
@author Oliver Merkel, Merkel(dot)Oliver(at)web(dot)de.
All rights reserved.

This graphics is licensed under a
http://creativecommons.org/licenses/by-nc-sa/4.0
Creative Commons Attribution-NonCommercial-ShareAlike 4.0 International License.
-->
<svg 
   xmlns:dc="http://purl.org/dc/elements/1.1/"
   xmlns:cc="http://creativecommons.org/ns#"
   xmlns:rdf="http://www.w3.org/1999/02/22-rdf-syntax-ns#"
   xmlns:svg="http://www.w3.org/2000/svg"
   xmlns:xlink="http://www.w3.org/1999/xlink"
   xmlns="http://www.w3.org/2000/svg"
   xmlns:inkscape="http://www.inkscape.org/namespaces/inkscape"
   id="board" 
   viewBox="-10 320 800 584"
   width="100%"
   height="100%">
<defs><filter id="Slklbj1g62" filterUnits="userSpaceOnUse"><feGaussianBlur in="SourceAlpha" stdDeviation="4"></feGaussianBlur><feOffset dx="8" dy="8" result="offsetblur"></feOffset><feFlood flood-color="#000000"></feFlood><feComposite in2="offsetblur" operator="in"></feComposite><feComponentTransfer><feFuncA type="linear" slope="0.8"></feFuncA></feComponentTransfer><feMerge><feMergeNode></feMergeNode><feMergeNode in="SourceGraphic"></feMergeNode></feMerge></filter><linearGradient x1="0" y1="0" x2="1" y2="1"><stop offset="0%" stop-color="#ffffff"></stop><stop offset="50%" stop-color="#dd4400"></stop><stop offset="100%" stop-color="#990000"></stop></linearGradient><radialGradient cx="0" cy="0" r="1.4" fx="0.3" fy="0.3" id="radialGradientSlklbj1g67"><stop offset="0%" stop-color="#ff6600"></stop><stop offset="100%" stop-color="#662200"></stop></radialGradient></defs>
  <circle cx="500" cy="500" r="500" style="stroke-width: 20px; fill-opacity: 1;" fill="#aaaaaa" stroke="#666666"></circle>
  <circle cx="327" cy="400" r="24" style="stroke-width: 3px; fill-opacity: 1;" fill="#333333" stroke="#000000"></circle>
  <circle cx="500" cy="400" r="24" style="stroke-width: 3px; fill-opacity: 1;" fill="#333333" stroke="#000000"></circle>
  <circle cx="673" cy="400" r="24" style="stroke-width: 3px; fill-opacity: 1;" fill="#333333" stroke="#000000"></circle>
  <circle cx="240" cy="550" r="24" style="stroke-width: 3px; fill-opacity: 1;" fill="#333333" stroke="#000000"></circle>
  <circle cx="240" cy="550" r="72" fill="url('#radialGradientSlklbj1g67')" style="stroke-width: 10px; stroke-opacity: 1; fill-opacity: 1; visibility: visible;" stroke="#000000" filter="url('#Slklbj1g62')"></circle>
  <circle cx="413" cy="550" r="24" style="stroke-width: 3px; fill-opacity: 1;" fill="#333333" stroke="#000000"></circle>
  <circle cx="413" cy="550" r="72" fill="url('#radialGradientSlklbj1g67')" style="stroke-width: 4px; stroke-opacity: 1; fill-opacity: 1; visibility: visible;" stroke="#000000" filter="url('#Slklbj1g62')"></circle>
  <path d="m -9.25,-17.75 -8.5,8.5 9.25,9.25 -9.25,9.25 8.5,8.5 L 0,8.5 9.25,17.75 17.75,9.25 8.5,0 17.75,-9.25 9.25,-17.75 0,-8.5 -9.25,-17.75 z" style="fill-opacity: 1; stroke-width: 2px; marker: none; visibility: visible;" fill="#980101" stroke="#000000" transform="matrix(1.65,0,0,1.65,413,550)"></path>
  <circle cx="586" cy="550" r="24" style="stroke-width: 3px; fill-opacity: 1;" fill="#333333" stroke="#000000"></circle>
  <circle cx="586" cy="550" r="72" fill="url('#radialGradientSlklbj1g67')" style="stroke-width: 4px; stroke-opacity: 0.1; fill-opacity: 0.1; visibility: visible;" stroke="#000000" filter="url('#Slklbj1g62')"></circle>
  <circle cx="759" cy="550" r="24" style="stroke-width: 3px; fill-opacity: 1;" fill="#333333" stroke="#000000"></circle>
  <circle cx="154" cy="700" r="24" style="stroke-width: 3px; fill-opacity: 1;" fill="#333333" stroke="#000000"></circle>
  <circle cx="327" cy="700" r="24" style="stroke-width: 3px; fill-opacity: 1;" fill="#333333" stroke="#000000"></circle>
  <circle cx="500" cy="700" r="24" style="stroke-width: 3px; fill-opacity: 1;" fill="#333333" stroke="#000000"></circle>
  <circle cx="673" cy="700" r="24" style="stroke-width: 3px; fill-opacity: 1;" fill="#333333" stroke="#000000"></circle>
  <circle cx="846" cy="700" r="24" style="stroke-width: 3px; fill-opacity: 1;" fill="#333333" stroke="#000000"></circle>
  <path d="m -47,-16 C -87,-40 -182,-98 -270,-44 l 9,14 -72,23 40,-69 L -281,-59 c 63,-40 152,-33 245,27 z" style="fill-opacity: 1; stroke-width: 5px; stroke-opacity: 1; marker: none; visibility: visible;" fill="#980101" stroke="#000000" transform="matrix(-1,0,0,-1,240,550)"></path>
</svg>